<?xml version="1.0" standalone="no"?>
<!DOCTYPE svg PUBLIC "-//W3C//DTD SVG 20010904//EN"
 "http://www.w3.org/TR/2001/REC-SVG-20010904/DTD/svg10.dtd">
<svg version="1.0" xmlns="http://www.w3.org/2000/svg"
 width="512.000000pt" height="512.000000pt" viewBox="0 0 512.000000 512.000000"
 preserveAspectRatio="xMidYMid meet">
<metadata>
Created by potrace 1.11, written by Peter Selinger 2001-2013
</metadata>
<g transform="translate(0.000000,512.000000) scale(0.100000,-0.100000)"
fill="#000000" stroke="none">
<path d="M2395 5114 c-380 -38 -630 -103 -925 -241 -730 -342 -1271 -1038
-1419 -1823 -37 -195 -45 -284 -45 -490 0 -418 78 -752 265 -1135 352 -720
1029 -1232 1826 -1380 576 -107 1160 -16 1678 263 799 430 1307 1247 1342
2157 35 920 -434 1791 -1227 2280 -290 179 -620 295 -995 350 -98 15 -421 27
-500 19z m416 -884 c311 -15 530 -72 730 -191 348 -206 559 -559 641 -1074 31
-189 33 -628 5 -830 -50 -356 -164 -605 -382 -834 -196 -206 -370 -296 -720
-372 l-150 -33 -902 -3 -903 -4 0 1669 c0 918 3 1672 7 1675 10 10 1460 8
1674 -3z"/>
<path d="M2160 2560 l0 -912 258 5 c284 5 353 15 459 67 115 57 210 192 253
363 56 221 53 697 -6 926 -62 243 -184 371 -413 433 -64 18 -114 22 -313 26
l-238 4 0 -912z"/>
</g>
</svg>
